<svg width="26" height="26" viewBox="0 0 26 26" fill="none" xmlns="http://www.w3.org/2000/svg">
<path d="M15.4998 12C14.6567 12 14 12.6762 14 13.5C14 14.3238 14.6745 15 15.4998 15C16.3429 15 16.9997 14.3238 16.9997 13.5C17.0174 12.6762 16.3429 12 15.4998 12Z" fill="white"/>
<path d="M10.4998 12C9.65672 12 9 12.6762 9 13.5C9 14.3238 9.67447 15 10.4998 15C11.3429 15 12.0085 14.3238 11.9997 13.5C12.0174 12.6762 11.3429 12 10.4998 12Z" fill="white"/>
<path d="M13 0C5.82102 0 0 5.82102 0 13C0 20.179 5.82102 26 13 26C20.179 26 26 20.179 26 13C26.0086 5.82102 20.1876 0 13 0ZM21.0785 17.1949C19.6687 18.2502 18.3021 18.8902 16.9528 19.3054C16.6154 18.847 16.3214 18.3626 16.0705 17.8523C16.5549 17.6707 17.022 17.4371 17.4631 17.1776C17.3506 17.0912 17.2295 17.0047 17.1257 16.9095C14.479 18.1637 11.5642 18.1637 8.8829 16.9095C8.77046 17.0047 8.65802 17.0912 8.54558 17.1776C8.98669 17.4458 9.45376 17.6707 9.93813 17.8523C9.68729 18.3626 9.38456 18.847 9.05589 19.3054C7.71523 18.8902 6.33998 18.2502 4.93014 17.1949C4.64471 14.1071 5.21557 10.9674 7.34332 7.74983C8.39854 7.25682 9.5316 6.89355 10.7079 6.69461C10.855 6.95409 11.0279 7.30872 11.1404 7.5855C12.3686 7.39521 13.6141 7.39521 14.8683 7.5855C14.9807 7.30872 15.1537 6.95409 15.3007 6.69461C16.477 6.9022 17.6101 7.25682 18.6653 7.74983C20.499 10.509 21.4158 13.6141 21.0785 17.1949Z" fill="white"/>
</svg>
