<svg width="26" height="26" viewBox="0 0 26 26" fill="none" xmlns="http://www.w3.org/2000/svg">
<path d="M13 0C5.8174 0 0 5.81739 0 13C0 20.1826 5.8174 26 13 26C20.1826 26 26 20.1826 26 13C26 5.82609 20.1826 0 13 0ZM19.0261 8.84348C18.8261 10.8957 17.9826 15.887 17.5565 18.1913C17.3739 19.1652 17.0174 19.4957 16.6696 19.5217C15.9131 19.5913 15.3391 19.0261 14.6087 18.5391C13.4609 17.7913 12.8174 17.3217 11.7043 16.5913C10.4174 15.7478 11.2522 15.2783 11.9826 14.5217C12.1739 14.3217 15.5043 11.2957 15.5652 11.0261C15.5739 10.9913 15.5826 10.8609 15.5044 10.8C15.4261 10.7304 15.3131 10.7565 15.2348 10.7739C15.1218 10.8 13.2956 12.0087 9.74782 14.4C9.22608 14.7565 8.75652 14.9304 8.33913 14.9217C7.87826 14.913 6.98263 14.6609 6.32176 14.4435C5.50437 14.1826 4.86087 14.0348 4.91304 13.5913C4.93913 13.3565 5.26088 13.1217 5.87827 12.8696C9.66958 11.2174 12.2 10.1304 13.4609 9.6C17.0696 8.09565 17.8261 7.83478 18.313 7.82609C18.4174 7.82609 18.6609 7.85217 18.8174 7.97391C18.9478 8.07826 18.9826 8.22609 19 8.32174C19.0174 8.43478 19.0435 8.66087 19.0261 8.84348Z" fill="white"/>
</svg>
