<svg width="27" height="26" viewBox="0 0 27 26" fill="none" xmlns="http://www.w3.org/2000/svg">
<path d="M13.5 0C6.04707 0 0 5.81442 0 13C0 20.1856 6.03805 26 13.5 26C20.9529 26 27 20.1856 27 13C27 5.81442 20.9529 0 13.5 0ZM20.0607 9.75434C20.0698 9.89319 20.0698 10.032 20.0698 10.1709C20.0698 14.4753 16.6722 19.4393 10.4539 19.4393C8.61549 19.4393 6.8221 18.9359 5.27203 17.9813C5.54239 18.016 5.80374 18.0247 6.0741 18.0247C7.59713 18.0247 9.0751 17.5387 10.2737 16.6275C8.82277 16.6015 7.56108 15.6903 7.11949 14.3712C7.62417 14.4666 8.14686 14.4493 8.64252 14.3191C7.06542 14.0154 5.92991 12.6789 5.92991 11.1255V11.0821C6.39853 11.3338 6.93024 11.4726 7.46195 11.49C5.97497 10.5354 5.51536 8.63485 6.41656 7.14219C8.13785 9.1729 10.6702 10.4139 13.3828 10.5441C13.1125 9.41589 13.482 8.22697 14.3652 7.43725C15.726 6.20494 17.8708 6.26569 19.1505 7.5761C19.9075 7.42857 20.6285 7.16822 21.2954 6.78638C21.0431 7.54139 20.5114 8.18358 19.8084 8.58278C20.4753 8.50467 21.1332 8.33111 21.746 8.07076C21.2864 8.72163 20.7186 9.29439 20.0607 9.75434Z" fill="white"/>
</svg>
