<?xml version="1.0" encoding="utf-8"?>
<svg viewBox="0 0 74.885 55.349" width="74.885" height="55.349" xmlns="http://www.w3.org/2000/svg">
  <defs>
    <clipPath id="clip-path">
      <rect id="Rectangle_559" data-name="Rectangle 559" width="274.712" height="73.136" fill="#484c80"/>
    </clipPath>
  </defs>
  <g>
    <path id="Tracé_1813" data-name="Tracé 1813" d="M 27.387 55.349 L 0 27.587 L 27.73 0.232 L 34.158 6.749 L 30.504 10.349 L 27.68 7.491 L 7.259 27.637 L 27.436 48.091 L 30.013 45.55 L 33.613 49.203 L 27.387 55.349 Z" fill="#fff" clip-path="url(#clip-path)"/>
    <path id="Tracé_1814" data-name="Tracé 1814" d="M 47.56 38.343 L 43.96 34.69 L 50.795 27.945 L 43.724 20.782 L 47.378 17.182 L 58.05 27.996 L 47.56 38.343 Z" fill="#395180" clip-path="url(#clip-path)"/>
    <path id="Tracé_1815" data-name="Tracé 1815" d="M 47.156 55.116 L 19.769 27.355 L 40.569 6.837 L 47.498 0 L 74.885 27.762 L 47.156 55.116 Z M 27.028 27.4 L 47.209 47.858 L 67.627 27.712 L 47.449 7.258 L 27.028 27.4 Z" fill="#fff" clip-path="url(#clip-path)"/>
  </g>
</svg>