<svg width="27" height="26" viewBox="0 0 27 26" fill="none" xmlns="http://www.w3.org/2000/svg">
<path fill-rule="evenodd" clip-rule="evenodd" d="M13.5088 0C6.04806 0 0 5.96688 0 13.3275C0 19.216 3.86723 24.2159 9.24426 25.9755C9.91529 26.0975 10.1625 25.6881 10.1625 25.3309C10.1625 25.0173 10.1537 24.1811 10.1448 23.0661C6.38357 23.8762 5.58893 21.2804 5.58893 21.2804C4.97088 19.7386 4.08796 19.3292 4.08796 19.3292C2.86069 18.5017 4.18508 18.5191 4.18508 18.5191C5.54479 18.6149 6.25113 19.8954 6.25113 19.8954C7.46074 21.9337 9.41202 21.3414 10.1802 21.0017C10.3038 20.1393 10.6481 19.5557 11.0366 19.216C8.03465 18.8762 4.88259 17.7351 4.88259 12.6306C4.88259 11.1759 5.41235 9.98254 6.26879 9.05049C6.12752 8.71077 5.6684 7.3606 6.40123 5.52263C6.40123 5.52263 7.53138 5.16549 10.1184 6.89022C11.1955 6.59405 12.3522 6.44597 13.5 6.44597C14.6478 6.45468 15.8044 6.60276 16.8816 6.89022C19.4597 5.16549 20.5899 5.52263 20.5899 5.52263C21.3316 7.3606 20.8636 8.71077 20.7223 9.05049C21.5876 9.98254 22.1085 11.1759 22.1085 12.6306C22.1085 17.7526 18.9476 18.8762 15.9369 19.2073C16.4225 19.6167 16.8551 20.4355 16.8551 21.6724C16.8551 23.4581 16.8375 24.8954 16.8375 25.3309C16.8375 25.6881 17.0847 26.1062 17.7645 25.9755C23.1327 24.2072 27 19.216 27 13.3275C27.0176 5.96688 20.9696 0 13.5088 0Z" fill="white"/>
</svg>
