<svg width="26" height="26" viewBox="0 0 26 26" fill="none" xmlns="http://www.w3.org/2000/svg">
<path d="M13 0C5.81442 0 0 5.81636 0 12.9957C0 20.175 5.81442 26 13 26C20.1769 26 26 20.1836 26 12.9957C26 5.80768 20.1769 0 13 0ZM9.251 19.5933C9.251 19.7149 9.20761 19.7496 9.09479 19.7496C8.26168 19.7409 7.43725 19.7409 6.60414 19.7496C6.46529 19.7496 6.43925 19.7062 6.43925 19.576C6.43925 18.1262 6.43925 16.6765 6.43925 15.2267C6.43925 13.7943 6.43925 12.3533 6.43925 10.9209C6.43925 10.7646 6.47396 10.7212 6.63017 10.7299C7.44593 10.7386 8.253 10.7386 9.06876 10.7299C9.19893 10.7299 9.251 10.7559 9.251 10.9035C9.251 13.803 9.251 16.6938 9.251 19.5933ZM7.84513 9.48848C6.95995 9.48848 6.23097 8.75058 6.2223 7.86511C6.2223 6.97095 6.95995 6.23306 7.85381 6.24174C8.74766 6.24174 9.47663 6.97963 9.46796 7.88247C9.46796 8.76795 8.73031 9.48848 7.84513 9.48848ZM19.7603 19.576C19.7603 19.7149 19.7256 19.7583 19.5868 19.7496C18.771 19.7409 17.9553 19.7409 17.1482 19.7496C17.0007 19.7496 16.966 19.7149 16.966 19.5673C16.9746 18.0741 16.9746 16.5723 16.966 15.0791C16.966 14.6972 16.9399 14.3152 16.8358 13.9419C16.6449 13.2735 16.1328 12.9175 15.4299 12.9696C15.2563 12.987 15.0915 12.9957 14.9266 13.0391C14.3017 13.2214 14.024 13.6988 13.9025 14.2891C13.8505 14.5583 13.8244 14.8361 13.8244 15.1139C13.8244 16.5896 13.8244 18.0741 13.8244 19.5499C13.8244 19.6975 13.7984 19.7496 13.6335 19.7496C12.8178 19.7409 11.9933 19.7409 11.1776 19.7496C11.0474 19.7496 11.0127 19.7149 11.0127 19.5846C11.0127 16.6938 11.0127 13.7943 11.0127 10.9035C11.0127 10.7646 11.0561 10.7299 11.1949 10.7299C11.976 10.7386 12.7657 10.7386 13.5467 10.7299C13.6856 10.7299 13.7203 10.7733 13.7116 10.8948C13.7029 11.19 13.7116 11.4851 13.7116 11.7803C13.7116 11.8324 13.6943 11.8932 13.7463 11.9713C13.8939 11.7369 14.0501 11.5199 14.2497 11.3376C14.8485 10.7733 15.5601 10.4955 16.3845 10.5129C16.8271 10.5215 17.261 10.5563 17.6949 10.6778C18.8057 10.999 19.3611 11.8063 19.5955 12.8741C19.743 13.5165 19.7777 14.1676 19.7777 14.8187C19.769 16.4073 19.7603 17.9873 19.7603 19.576Z" fill="white"/>
</svg>
