<svg width="50" height="50" viewBox="0 0 50 50" fill="none" xmlns="http://www.w3.org/2000/svg">
<path fill-rule="evenodd" clip-rule="evenodd" d="M25 50C38.8071 50 50 38.8066 50 25C50 11.1934 38.8071 0 25 0C11.1929 0 0 11.1934 0 25C0 38.8066 11.1929 50 25 50ZM6 24.9443L19.9363 39L23.1035 35.8848L21.2776 34.0303L19.9363 35.3291L9.68896 24.9814L20.0852 14.7822L21.5012 16.2285L23.3645 14.4111L20.0852 11.1104L6 24.9443ZM30.1833 30.3955L28.3574 28.541L31.823 25.1289L28.2456 21.4951L30.0715 19.6777L35.512 25.166L30.1833 30.3955ZM16.0605 24.834L29.9597 38.8525L44.0449 25.0566L30.146 11L26.6433 14.4492L16.0605 24.834ZM29.9968 35.2178L19.7498 24.8711L30.1086 14.6719L40.356 25.0195L29.9968 35.2178Z" fill="white"/>
</svg>
