<svg width="26" height="26" viewBox="0 0 26 26" fill="none" xmlns="http://www.w3.org/2000/svg">
<path d="M13 0C5.82309 0 0 5.81442 0 13C0 20.1856 5.81441 26 13 26C20.1769 26 26 20.1856 26 13C26 5.81442 20.1769 0 13 0ZM19.3438 8.80841C19.3438 11.6028 19.3438 14.4059 19.3438 17.2003C19.3438 17.261 19.3438 17.3131 19.3438 17.3738C19.3438 17.478 19.3785 17.5734 19.4566 17.6515C19.8211 18.0073 20.1769 18.3718 20.5501 18.719C20.6716 18.8318 20.7063 18.9533 20.6802 19.1182C18.6669 19.1182 16.6622 19.1182 14.6402 19.1182C14.6228 18.9793 14.6142 18.8665 14.7443 18.7537C15.1262 18.3979 15.4993 18.0247 15.8725 17.6689C15.9593 17.5821 16.0027 17.478 16.0027 17.3565C16.0027 15.0307 16.0027 12.7049 16.0027 10.3792C16.0027 10.3705 16.0027 10.3705 15.994 10.3271C15.968 10.3792 15.9593 10.4052 15.9419 10.4312C15.1435 12.4533 14.3451 14.484 13.5467 16.506C13.217 17.3391 12.8872 18.1722 12.5661 19.0053C12.54 19.0748 12.5053 19.1008 12.4272 19.1008C12.3318 19.0921 12.245 19.0921 12.1495 19.1008C12.0801 19.1095 12.0454 19.0748 12.0194 19.014C11.4726 17.8164 10.9172 16.6188 10.3705 15.4125C9.6068 13.755 8.85181 12.0975 8.08812 10.4312C8.07944 10.4052 8.06208 10.3792 8.04473 10.3531C8.03605 10.3531 8.02737 10.3531 8.02737 10.3531C8.02737 10.3965 8.02737 10.4312 8.02737 10.4746C8.02737 12.3491 8.02737 14.2236 8.02737 16.0895C8.02737 16.2023 8.01002 16.3238 8.03605 16.4279C8.07077 16.5581 8.12283 16.6969 8.20962 16.8011C8.72163 17.4346 9.24233 18.0681 9.7717 18.6929C9.87584 18.8144 9.89318 18.9272 9.86715 19.0748C8.33978 19.0748 6.81241 19.0748 5.28504 19.0748C5.27636 18.9446 5.26769 18.8231 5.37183 18.7103C5.9012 18.0854 6.42189 17.4519 6.94259 16.8184C7.08144 16.6449 7.14219 16.4453 7.11615 16.2196C7.10747 16.1762 7.10748 16.1328 7.10748 16.0981C7.10748 13.8765 7.10748 11.6549 7.10748 9.43324C7.10748 9.19025 7.03806 8.99933 6.88185 8.81709C6.43926 8.30507 6.0227 7.78438 5.58879 7.27236C5.48465 7.15087 5.45862 7.02937 5.48465 6.86449C5.51936 6.86449 5.55407 6.86449 5.58879 6.86449C7.00334 6.86449 8.41788 6.86449 9.84112 6.86449C9.91922 6.86449 9.96262 6.89052 9.99733 6.95995C11.1168 9.41589 12.2363 11.8718 13.3558 14.3278C13.3732 14.3625 13.3818 14.3885 13.4079 14.4319C13.4252 14.3885 13.4426 14.3538 13.46 14.3191C14.4406 11.8632 15.4299 9.40721 16.4105 6.95127C16.4366 6.8992 16.4539 6.85581 16.532 6.85581C17.9032 6.85581 19.2744 6.85581 20.6455 6.85581C20.6629 6.85581 20.6802 6.85581 20.7149 6.85581C20.7236 6.99466 20.741 7.10748 20.6108 7.22029C20.2203 7.5761 19.8384 7.94927 19.4566 8.31375C19.3785 8.39186 19.3438 8.48732 19.3438 8.60013C19.3438 8.68692 19.3438 8.74766 19.3438 8.80841Z" fill="white"/>
</svg>
