<?xml version="1.0" encoding="utf-8"?>
<!-- Generator: Adobe Illustrator 27.8.1, SVG Export Plug-In . SVG Version: 6.00 Build 0)  -->
<svg version="1.1" id="Calque_2_00000032646572552465208320000001272123736283412878_"
	 xmlns="http://www.w3.org/2000/svg" xmlns:xlink="http://www.w3.org/1999/xlink" x="0px" y="0px" viewBox="0 0 963.7 963.7"
	 style="enable-background:new 0 0 963.7 963.7;" xml:space="preserve">
<style type="text/css">
	.st0{stroke:#FFFFFF;stroke-miterlimit:10;}
</style>
<g>
	<path class="st0" d="M481.8,0.5C216,0.5,0.5,216,0.5,481.8S216,963.2,481.8,963.2s481.3-215.5,481.3-481.3S747.7,0.5,481.8,0.5z
		 M325.8,685.1c-111.5,0-201.9-91-201.9-203.2s90.4-203.3,201.9-203.3s201.9,91,201.9,203.3S437.3,685.1,325.8,685.1z M648.2,673.2
		c-55.8,0-100.9-85.7-100.9-191.4s45.2-191.3,100.9-191.3l0,0c55.8,0,100.9,85.7,100.9,191.4C749.1,587.5,704,673.2,648.2,673.2z
		 M804.2,653.2c-19.6,0-35.5-76.8-35.5-171.4s15.9-171.4,35.5-171.4v0c19.6,0,35.5,76.8,35.5,171.4S823.8,653.2,804.2,653.2z"/>
</g>
</svg>
