<svg width="119" height="33" viewBox="0 0 119 33" fill="none" xmlns="http://www.w3.org/2000/svg">
<path d="M37.9458 13.2631V13.2C37.9458 7.54737 42.4194 2.90527 48.6064 2.90527C54.7933 2.90527 59.2035 7.48421 59.2035 13.1368V13.2C59.2035 18.8526 54.7299 23.4947 48.5429 23.4947C42.356 23.4947 37.9458 18.9158 37.9458 13.2631ZM54.6029 13.2631V13.2C54.6029 9.78946 52.0964 6.94737 48.5429 6.94737C44.9894 6.94737 42.5463 9.72631 42.5463 13.1368V13.2C42.5463 16.6105 45.0528 19.4526 48.6064 19.4526C52.1599 19.4526 54.6029 16.6737 54.6029 13.2631Z" fill="#0F1E3D"/>
<path d="M63.1062 3.25244H67.5164V11.9366L75.6387 3.25244H80.9373L72.7832 11.684L81.2863 23.1471H75.9877L69.8325 14.684L67.5164 17.084V23.1787H63.1062V3.25244Z" fill="#0F1E3D"/>
<path d="M83.9514 3.25244H92.1055C96.8647 3.25244 99.7519 6.06296 99.7519 10.1366V10.1998C99.7519 14.8103 96.1666 17.1787 91.6613 17.1787H88.3299V23.1471H83.9197V3.25244H83.9514ZM91.8516 13.2945C94.0409 13.2945 95.3417 11.9998 95.3417 10.2945V10.2314C95.3417 8.27348 93.9774 7.23138 91.7882 7.23138H88.3933V13.3261L91.8516 13.2945Z" fill="#0F1E3D"/>
<path d="M111.999 18.8526H102.227L101.529 15.7578L112.507 3.09473H116.219V15.2842H118.916V18.8526H116.219V23.1473H112.031V18.8526H111.999ZM111.999 15.3157V9.12629L106.7 15.3157H111.999Z" fill="#0F1E3D"/>
<path d="M45.5897 19.2947L38.4191 26.3999L35.3098 23.3052L58.725 0L61.8343 3.09473L51.5862 13.2947L45.5897 19.2947Z" fill="#0F1E3D"/>
<path d="M11.8662 25.3264L0 13.358L11.9931 1.5791L14.7852 4.38962L13.1988 5.93698L11.9931 4.70541L3.14106 13.3896L11.8662 22.2001L13.0084 21.0948L14.5631 22.6738L11.8662 25.3264Z" fill="#0F1E3D"/>
<path d="M20.5906 17.9998L19.036 16.4209L21.9867 13.5156L18.9408 10.4209L20.4955 8.87354L25.1277 13.5472L20.5906 17.9998Z" fill="#0D1933" fill-opacity="0.4"/>
<path d="M20.4016 25.1996L8.56714 13.2628L17.5779 4.42072L20.5603 1.48389L32.3948 13.4523L20.4016 25.1996ZM11.7082 13.2944L20.4334 22.1049L29.2537 13.4207L20.5286 4.61019L11.7082 13.2944Z" fill="#0F1E3D"/>
<path d="M38.7401 32.8421C38.5814 32.7474 38.4545 32.621 38.3593 32.4631C38.2642 32.3053 38.2324 32.1158 38.2324 31.9263V31.0421C38.2324 30.8526 38.2642 30.6632 38.3593 30.5053C38.4545 30.3474 38.5814 30.2211 38.7401 30.1263C38.8987 30.0316 39.0891 30 39.3112 30C39.5333 30 39.7236 30.0316 39.8823 30.1263C40.0409 30.2211 40.1678 30.3474 40.263 30.5053C40.3582 30.6632 40.3899 30.8526 40.3899 31.0421V31.9263C40.3899 32.1474 40.3582 32.3053 40.263 32.4631C40.1678 32.621 40.0409 32.7474 39.8823 32.8421C39.7236 32.9368 39.5333 32.9684 39.3112 32.9684C39.0891 32.9684 38.8987 32.9368 38.7401 32.8421ZM39.6919 32.3368C39.7871 32.2421 39.8188 32.1158 39.8188 31.9579V31.0421C39.8188 30.8842 39.7871 30.7579 39.6919 30.6632C39.5967 30.5684 39.4698 30.5053 39.3112 30.5053C39.1525 30.5053 39.0256 30.5684 38.9622 30.6632C38.8987 30.7579 38.8353 30.8842 38.8353 31.0421V31.9579C38.8353 32.1158 38.867 32.2421 38.9622 32.3368C39.0573 32.4316 39.1843 32.4947 39.3112 32.4947C39.4381 32.4947 39.5967 32.4316 39.6919 32.3368Z" fill="#0F1E3D"/>
<path d="M43.1818 30.1581C43.3087 30.2212 43.4356 30.3475 43.4991 30.4738C43.5626 30.6002 43.626 30.7581 43.626 30.9475C43.626 31.137 43.5943 31.2633 43.4991 31.3896C43.4039 31.5159 43.3087 31.6107 43.1818 31.7054C43.0549 31.8002 42.8645 31.8002 42.7059 31.8002H42.1031C42.1031 31.8002 42.0713 31.8002 42.0713 31.8317V32.8738V32.9054L42.0396 32.937H41.5637C41.5637 32.937 41.532 32.937 41.532 32.9054L41.5002 32.8738V30.0949C41.5002 30.0949 41.5002 30.0633 41.532 30.0633C41.5637 30.0633 41.5637 30.0317 41.5637 30.0317H42.7376C42.8963 30.0633 43.0549 30.0949 43.1818 30.1581ZM42.928 31.2317C42.9915 31.1686 43.0549 31.0738 43.0549 30.9475C43.0549 30.8212 43.0232 30.7265 42.928 30.6633C42.8645 30.6002 42.7376 30.5686 42.6107 30.5686H42.1031C42.1031 30.5686 42.0713 30.5686 42.0713 30.6002V31.358C42.0713 31.358 42.0713 31.3896 42.1031 31.3896H42.6107C42.7376 31.358 42.8328 31.3265 42.928 31.2317Z" fill="#0F1E3D"/>
<path d="M46.6405 30.537H46.6087H45.2444C45.2444 30.537 45.2127 30.537 45.2127 30.5686V31.2001C45.2127 31.2001 45.2127 31.2317 45.2444 31.2317H46.1328H46.1645V31.2633V31.6738V31.7054L46.1328 31.737H45.2444C45.2444 31.737 45.2127 31.737 45.2127 31.7686V32.4317C45.2127 32.4317 45.2127 32.4633 45.2444 32.4633H46.6087C46.6087 32.4633 46.6405 32.4633 46.6405 32.4949C46.6405 32.5265 46.6722 32.5265 46.6722 32.5265V32.937C46.6722 32.937 46.6722 32.9686 46.6405 32.9686C46.6087 32.9686 46.6087 33.0001 46.6087 33.0001H44.7051C44.7051 33.0001 44.6733 33.0001 44.6733 32.9686L44.6416 32.937V30.158C44.6416 30.158 44.6416 30.1265 44.6733 30.1265H44.7051H46.6087H46.6405L46.6722 30.158V30.5686C46.6405 30.5054 46.6405 30.537 46.6405 30.537Z" fill="#0F1E3D"/>
<path d="M49.3692 30.063H49.4009H49.8768H49.9086V30.0946V32.8735V32.9051L49.8768 32.9367H49.4009C49.3692 32.9367 49.3692 32.9367 49.3374 32.9051L48.2587 31.1367C48.2587 31.1367 48.2587 31.1367 48.227 31.1367C48.227 31.1367 48.227 31.1367 48.227 31.1682V32.9051C48.227 32.9051 48.227 32.9367 48.1952 32.9367C48.1635 32.9367 48.1635 32.9682 48.1635 32.9682H47.6876C47.6876 32.9682 47.6559 32.9682 47.6559 32.9367L47.6241 32.9051V30.1261C47.6241 30.1261 47.6241 30.0946 47.6559 30.0946H47.6876H48.1635C48.1952 30.0946 48.1952 30.0946 48.227 30.1261L49.3057 31.863C49.3057 31.863 49.3057 31.863 49.3374 31.863C49.3374 31.863 49.3374 31.863 49.3374 31.8314V30.0946C49.3692 30.1261 49.3692 30.0946 49.3692 30.063Z" fill="#0F1E3D"/>
<path d="M52.6362 32.9054L52.6045 32.8738V30.0949C52.6045 30.0949 52.6045 30.0633 52.6362 30.0633H52.6679H53.1439H53.1756L53.2073 30.0949V31.2317C53.2073 31.2317 53.2073 31.2317 53.239 31.2317L54.1909 30.0633C54.2226 30.0317 54.2226 30.0317 54.2543 30.0317H54.7937C54.8254 30.0317 54.8254 30.0317 54.8254 30.0633C54.8254 30.0949 54.8254 30.0949 54.8254 30.0949L53.9053 31.2633V31.2949L54.8889 32.8423C54.8889 32.8738 54.8889 32.8738 54.8889 32.8738C54.8889 32.9054 54.8889 32.9054 54.8572 32.9054H54.2861C54.2543 32.9054 54.2543 32.9054 54.2226 32.8738L53.4929 31.7054C53.4929 31.7054 53.4929 31.7054 53.4611 31.7054L53.2073 32.0212V32.0528V32.8738C53.2073 32.8738 53.2073 32.9054 53.1756 32.9054C53.1439 32.9054 53.1439 32.937 53.1439 32.937H52.6679C52.6679 32.937 52.6362 32.937 52.6362 32.9054Z" fill="#0F1E3D"/>
<path d="M57.5232 30.063H57.555H58.0309H58.0626V30.0946V32.8735V32.9051L58.0309 32.9367H57.555C57.5232 32.9367 57.5232 32.9367 57.4915 32.9051L56.4128 31.1367C56.4128 31.1367 56.4128 31.1367 56.381 31.1367C56.381 31.1367 56.381 31.1367 56.381 31.1682V32.9051C56.381 32.9051 56.381 32.9367 56.3493 32.9367C56.3176 32.9367 56.3176 32.9682 56.3176 32.9682H55.8417C55.8417 32.9682 55.8099 32.9682 55.8099 32.9367L55.7782 32.9051V30.1261C55.7782 30.1261 55.7782 30.0946 55.8099 30.0946H55.8417H56.3176C56.3493 30.0946 56.3493 30.0946 56.381 30.1261L57.4598 31.863C57.4598 31.863 57.4598 31.863 57.4915 31.863C57.4915 31.863 57.4915 31.863 57.4915 31.8314V30.0946C57.5232 30.1261 57.5232 30.0946 57.5232 30.063Z" fill="#0F1E3D"/>
<path d="M59.7124 32.8421C59.5537 32.7474 59.4268 32.621 59.3316 32.4631C59.2364 32.3053 59.2047 32.1158 59.2047 31.9263V31.0421C59.2047 30.8526 59.2364 30.6632 59.3316 30.5053C59.4268 30.3474 59.5537 30.2211 59.7124 30.1263C59.871 30.0316 60.0614 30 60.2835 30C60.5056 30 60.6959 30.0316 60.8546 30.1263C61.0132 30.2211 61.1401 30.3474 61.2353 30.5053C61.3305 30.6632 61.3622 30.8526 61.3622 31.0421V31.9263C61.3622 32.1474 61.3305 32.3053 61.2353 32.4631C61.1401 32.621 61.0132 32.7474 60.8546 32.8421C60.6959 32.9368 60.5056 32.9684 60.2835 32.9684C60.0614 32.9684 59.871 32.9368 59.7124 32.8421ZM60.6642 32.3368C60.7594 32.2421 60.7911 32.1158 60.7911 31.9579V31.0421C60.7911 30.8842 60.7594 30.7579 60.6642 30.6632C60.569 30.5684 60.4421 30.5053 60.2835 30.5053C60.1248 30.5053 59.9979 30.5684 59.9345 30.6632C59.871 30.7579 59.8075 30.8842 59.8075 31.0421V31.9579C59.8075 32.1158 59.8393 32.2421 59.9345 32.3368C60.0296 32.4316 60.1565 32.4947 60.2835 32.4947C60.4104 32.4947 60.569 32.4316 60.6642 32.3368Z" fill="#0F1E3D"/>
<path d="M63.0126 32.9051L62.2828 30.1261V30.0946C62.2828 30.063 62.2828 30.063 62.3146 30.063H62.8222C62.8539 30.063 62.8539 30.063 62.8857 30.0946L63.2664 31.7682V31.7998C63.2664 31.7998 63.2664 31.7998 63.2664 31.7682L63.6471 30.0946C63.6471 30.063 63.6789 30.063 63.7106 30.063H64.2182C64.25 30.063 64.2817 30.063 64.2817 30.0946L64.6942 31.7682L65.0749 30.0946C65.0749 30.063 65.1066 30.063 65.1383 30.063H65.6143C65.646 30.063 65.6777 30.0946 65.646 30.1261L64.9797 32.9051C64.9797 32.9367 64.948 32.9367 64.9163 32.9367H64.4086C64.3769 32.9367 64.3769 32.9367 64.3451 32.9051L63.9327 31.1367V31.1051C63.9327 31.1051 63.9327 31.1051 63.9327 31.1367L63.552 32.9051C63.552 32.9367 63.5202 32.9367 63.4885 32.9367H63.0443L63.0126 32.9051Z" fill="#0F1E3D"/>
<path d="M66.7231 32.9051L66.6914 32.8735V30.0946C66.6914 30.0946 66.6914 30.063 66.7231 30.063H66.7549H67.2308H67.2625L67.2942 30.0946V32.3998C67.2942 32.3998 67.2942 32.4314 67.326 32.4314H68.6585C68.6585 32.4314 68.6903 32.4314 68.6903 32.463C68.6903 32.4946 68.6903 32.4946 68.6903 32.4946V32.9051V32.9367L68.6585 32.9682H66.7549C66.7549 32.9367 66.7231 32.9367 66.7231 32.9051Z" fill="#0F1E3D"/>
<path d="M71.7052 30.537H71.6734H70.3091C70.3091 30.537 70.2774 30.537 70.2774 30.5686V31.2001C70.2774 31.2001 70.2774 31.2317 70.3091 31.2317H71.1975H71.2292V31.2633V31.6738V31.7054L71.1975 31.737H70.3091C70.3091 31.737 70.2774 31.737 70.2774 31.7686V32.4317C70.2774 32.4317 70.2774 32.4633 70.3091 32.4633H71.6734C71.6734 32.4633 71.7052 32.4633 71.7052 32.4949C71.7052 32.5265 71.7369 32.5265 71.7369 32.5265V32.937C71.7369 32.937 71.7369 32.9686 71.7052 32.9686C71.6734 32.9686 71.6734 33.0001 71.6734 33.0001H69.7698C69.7698 33.0001 69.738 33.0001 69.738 32.9686L69.7063 32.937V30.158C69.7063 30.158 69.7063 30.1265 69.738 30.1265H69.7698H71.6734H71.7052L71.7369 30.158V30.5686C71.7369 30.5054 71.7369 30.537 71.7052 30.537Z" fill="#0F1E3D"/>
<path d="M72.8161 32.9051L72.7844 32.8735V30.0946C72.7844 30.0946 72.7844 30.063 72.8161 30.063H72.8479H73.8632C74.0535 30.063 74.2439 30.0946 74.4025 30.1577C74.5612 30.2209 74.6881 30.3472 74.7516 30.4735C74.815 30.5998 74.8785 30.7577 74.8785 30.9156V32.0525C74.8785 32.2419 74.8467 32.3682 74.7516 32.4946C74.6564 32.6209 74.5612 32.7156 74.4025 32.8103C74.2439 32.9051 74.0535 32.9051 73.8632 32.9051H72.8479C72.8479 32.9367 72.8161 32.9367 72.8161 32.9051ZM73.3873 32.4314H73.8949C74.0218 32.4314 74.117 32.3998 74.2122 32.3051C74.3074 32.2104 74.3391 32.1156 74.3391 31.9577V31.0104C74.3391 30.884 74.3074 30.7577 74.2122 30.663C74.117 30.5683 74.0218 30.5367 73.8949 30.5367H73.3873C73.3873 30.5367 73.3555 30.5367 73.3555 30.5682L73.3873 32.4314C73.3873 32.4314 73.3873 32.3998 73.3873 32.4314Z" fill="#0F1E3D"/>
<path d="M76.4643 32.8423C76.3057 32.7475 76.1788 32.6528 76.0836 32.4949C75.9884 32.337 75.9567 32.1791 75.9567 31.958V31.0423C75.9567 30.8528 75.9884 30.6633 76.0836 30.5054C76.1788 30.3475 76.3057 30.2212 76.4643 30.1581C76.6229 30.0633 76.8133 30.0317 77.0354 30.0317C77.2575 30.0317 77.4161 30.0633 77.6065 30.1581C77.7969 30.2528 77.8921 30.3475 77.9873 30.5054C78.0824 30.6633 78.1142 30.7896 78.1142 30.9791V31.0107V31.0423L78.0824 31.0738H77.6065C77.6065 31.0738 77.5748 31.0738 77.5748 31.0423C77.5748 31.0107 77.5431 31.0107 77.5431 31.0107C77.5431 30.8844 77.5113 30.7896 77.4161 30.6949C77.321 30.6002 77.2258 30.5686 77.0671 30.5686C76.9085 30.5686 76.8133 30.6317 76.7181 30.6949C76.6229 30.7581 76.5912 30.9159 76.5912 31.0423V31.9896C76.5912 32.1475 76.623 32.2423 76.7499 32.337C76.845 32.4317 76.972 32.4633 77.1306 32.4633C77.2892 32.4633 77.3844 32.4317 77.4796 32.337C77.5748 32.2423 77.6065 32.1475 77.6065 32.0212V31.8317C77.6065 31.8317 77.6065 31.8002 77.5748 31.8002H77.0989C77.0989 31.8002 77.0671 31.8002 77.0671 31.7686C77.0671 31.737 77.0671 31.737 77.0671 31.737V31.358V31.3265H77.0989H78.1142H78.1459V31.358V31.8949C78.1459 32.1159 78.1142 32.2738 78.019 32.4317C77.9238 32.5896 77.7969 32.7159 77.6382 32.7791C77.4796 32.8738 77.2892 32.9054 77.0671 32.9054C76.845 32.9054 76.6229 32.937 76.4643 32.8423Z" fill="#0F1E3D"/>
<path d="M81.1916 30.537H81.1599H79.7956C79.7956 30.537 79.7639 30.537 79.7639 30.5686V31.2001C79.7639 31.2001 79.7639 31.2317 79.7956 31.2317H80.684H80.7157V31.2633V31.6738V31.7054L80.684 31.737H79.7956C79.7956 31.737 79.7639 31.737 79.7639 31.7686V32.4317C79.7639 32.4317 79.7639 32.4633 79.7956 32.4633H81.1599C81.1599 32.4633 81.1916 32.4633 81.1916 32.4949C81.1916 32.5265 81.1916 32.5265 81.1916 32.5265V32.937V32.9686L81.1599 33.0001H79.2562C79.2562 33.0001 79.2245 33.0001 79.2245 32.9686V32.937V30.158V30.1265H79.2562H81.1599H81.1916V30.158V30.5686C81.1916 30.5054 81.1916 30.537 81.1916 30.537Z" fill="#0F1E3D"/>
<path d="M85.4439 30.1581C85.5708 30.2212 85.6977 30.3475 85.7612 30.4738C85.8246 30.6002 85.8881 30.7581 85.8881 30.9475C85.8881 31.137 85.8564 31.2633 85.7612 31.3896C85.666 31.5159 85.5708 31.6107 85.4439 31.7054C85.317 31.8002 85.1266 31.8002 84.968 31.8002H84.3652C84.3652 31.8002 84.3334 31.8002 84.3334 31.8317V32.8738V32.9054L84.3017 32.937H83.7941C83.7941 32.937 83.7623 32.937 83.7623 32.9054V32.8738V30.0949V30.0633L83.7941 30.0317H84.968C85.1266 30.0633 85.2853 30.0949 85.4439 30.1581ZM85.1584 31.2317C85.2218 31.1686 85.2853 31.0738 85.2853 30.9475C85.2853 30.8212 85.2535 30.7265 85.1584 30.6633C85.0949 30.6002 84.968 30.5686 84.8411 30.5686H84.3334C84.3334 30.5686 84.3017 30.5686 84.3017 30.6002V31.358C84.3017 31.358 84.3017 31.3896 84.3334 31.3896H84.8411C84.9997 31.358 85.0949 31.3265 85.1584 31.2317Z" fill="#0F1E3D"/>
<path d="M88.4258 32.9052L87.9181 31.7684C87.9181 31.7684 87.9181 31.7368 87.8864 31.7368H87.5057C87.5057 31.7368 87.4739 31.7368 87.4739 31.7684V32.9052V32.9368L87.4422 32.9684H86.9663C86.9663 32.9684 86.9346 32.9684 86.9346 32.9368V32.9052V30.1263V30.0947H86.9663H88.1402C88.2989 30.0947 88.4575 30.1263 88.6162 30.1895C88.7431 30.2526 88.87 30.3789 88.9334 30.5053C88.9969 30.6316 89.0286 30.7895 89.0286 30.9474C89.0286 31.1368 88.9969 31.2947 88.9017 31.421C88.8065 31.5474 88.6796 31.6421 88.521 31.7052C88.521 31.7052 88.4892 31.7368 88.521 31.7368L89.0921 32.9052V32.9368C89.0921 32.9684 89.0921 32.9684 89.0603 32.9684H88.5527C88.4258 32.9368 88.4258 32.9052 88.4258 32.9052ZM87.4739 30.5684V31.2631C87.4739 31.2631 87.474 31.2947 87.5057 31.2947H88.045C88.172 31.2947 88.2671 31.2631 88.3306 31.2C88.3941 31.1368 88.4258 31.0421 88.4258 30.9474C88.4258 30.8526 88.3941 30.7579 88.3306 30.6947C88.2671 30.6316 88.172 30.6 88.045 30.6L87.4739 30.5684Z" fill="#0F1E3D"/>
<path d="M90.5512 32.8421C90.3926 32.7474 90.2657 32.621 90.1705 32.4631C90.0753 32.3053 90.0436 32.1158 90.0436 31.9263V31.0421C90.0436 30.8526 90.0753 30.6632 90.1705 30.5053C90.2657 30.3474 90.3926 30.2211 90.5512 30.1263C90.7099 30.0316 90.9002 30 91.1223 30C91.3444 30 91.5348 30.0316 91.6934 30.1263C91.8521 30.2211 91.979 30.3474 92.0742 30.5053C92.1693 30.6632 92.2011 30.8526 92.2011 31.0421V31.9263C92.2011 32.1474 92.1693 32.3053 92.0742 32.4631C91.979 32.621 91.8521 32.7474 91.6934 32.8421C91.5348 32.9368 91.3444 32.9684 91.1223 32.9684C90.9002 32.9684 90.7099 32.9368 90.5512 32.8421ZM91.4713 32.3368C91.5665 32.2421 91.5982 32.1158 91.5982 31.9579V31.0421C91.5982 30.8842 91.5665 30.7579 91.4713 30.6632C91.3762 30.5684 91.2492 30.5053 91.0906 30.5053C90.932 30.5053 90.805 30.5684 90.7416 30.6632C90.6781 30.7579 90.6147 30.8842 90.6147 31.0421V31.9579C90.6147 32.1158 90.6464 32.2421 90.7416 32.3368C90.8368 32.4316 90.9637 32.4947 91.0906 32.4947C91.2175 32.4947 91.3762 32.4316 91.4713 32.3368Z" fill="#0F1E3D"/>
<path d="M95.3107 30.063V30.0946V30.5051V30.5367L95.279 30.5682H94.5492C94.5492 30.5682 94.5175 30.5682 94.5175 30.5998V32.9051V32.9367L94.4858 32.9682H94.0099C94.0099 32.9682 93.9781 32.9682 93.9781 32.9367V32.9051V30.5998C93.9781 30.5998 93.9781 30.5682 93.9464 30.5682H93.2167C93.2167 30.5682 93.1849 30.5683 93.1849 30.5367C93.1849 30.5051 93.1849 30.5051 93.1849 30.5051V30.0946V30.063H93.2167H95.279H95.3107Z" fill="#0F1E3D"/>
<path d="M96.7076 32.8421C96.549 32.7474 96.422 32.621 96.3269 32.4631C96.2317 32.3053 96.2 32.1158 96.2 31.9263V31.0421C96.2 30.8526 96.2317 30.6632 96.3269 30.5053C96.422 30.3474 96.549 30.2211 96.7076 30.1263C96.8662 30.0316 97.0566 30 97.2787 30C97.5008 30 97.6912 30.0316 97.8498 30.1263C98.0084 30.2211 98.1354 30.3474 98.2305 30.5053C98.3257 30.6632 98.3574 30.8526 98.3574 31.0421V31.9263C98.3574 32.1474 98.3257 32.3053 98.2305 32.4631C98.1354 32.621 98.0084 32.7474 97.8498 32.8421C97.6912 32.9368 97.5008 32.9684 97.2787 32.9684C97.0566 32.9684 96.8662 32.9368 96.7076 32.8421ZM97.6277 32.3368C97.7229 32.2421 97.7546 32.1158 97.7546 31.9579V31.0421C97.7546 30.8842 97.7229 30.7579 97.6277 30.6632C97.5325 30.5684 97.4056 30.5053 97.247 30.5053C97.0883 30.5053 96.9614 30.5684 96.898 30.6632C96.8345 30.7579 96.771 30.8842 96.771 31.0421V31.9579C96.771 32.1158 96.8028 32.2421 96.898 32.3368C96.9931 32.4316 97.1201 32.4947 97.247 32.4947C97.3739 32.4947 97.5325 32.4316 97.6277 32.3368Z" fill="#0F1E3D"/>
<path d="M99.9107 32.8421C99.7521 32.7474 99.6252 32.6526 99.53 32.4947C99.4348 32.3368 99.4031 32.1789 99.4031 31.9579V31.0105C99.4031 30.821 99.4348 30.6316 99.53 30.4737C99.6252 30.3158 99.7521 30.2211 99.9107 30.1263C100.069 30.0316 100.26 30 100.482 30C100.704 30 100.863 30.0316 101.053 30.1263C101.243 30.2211 101.338 30.3158 101.434 30.4737C101.529 30.6316 101.561 30.7895 101.561 30.9789C101.561 31.0105 101.561 31.0105 101.497 31.0105L101.021 31.0421C100.989 31.0421 100.989 31.0105 100.989 31.0105C100.989 30.8526 100.958 30.7579 100.863 30.6632C100.767 30.5684 100.672 30.5368 100.514 30.5368C100.355 30.5368 100.26 30.5684 100.165 30.6632C100.069 30.7579 100.038 30.8842 100.038 31.0105V31.9895C100.038 32.1158 100.069 32.2421 100.165 32.3368C100.26 32.4316 100.387 32.4631 100.514 32.4631C100.64 32.4631 100.767 32.4316 100.863 32.3368C100.958 32.2421 100.989 32.1474 100.989 31.9895C100.989 31.9579 100.989 31.9579 101.053 31.9579L101.529 31.9895H101.561V32.021C101.561 32.2105 101.529 32.3684 101.434 32.5263C101.338 32.6842 101.212 32.7789 101.053 32.8737C100.894 32.9368 100.704 33 100.482 33C100.26 33 100.069 32.9368 99.9107 32.8421Z" fill="#0F1E3D"/>
<path d="M103.084 32.8421C102.926 32.7474 102.799 32.621 102.704 32.4631C102.608 32.3053 102.577 32.1158 102.577 31.9263V31.0421C102.577 30.8526 102.608 30.6632 102.704 30.5053C102.799 30.3474 102.926 30.2211 103.084 30.1263C103.243 30.0316 103.433 30 103.655 30C103.878 30 104.068 30.0316 104.227 30.1263C104.385 30.2211 104.512 30.3474 104.607 30.5053C104.702 30.6632 104.734 30.8526 104.734 31.0421V31.9263C104.734 32.1474 104.702 32.3053 104.607 32.4631C104.512 32.621 104.385 32.7474 104.227 32.8421C104.068 32.9368 103.878 32.9684 103.655 32.9684C103.433 32.9684 103.275 32.9368 103.084 32.8421ZM104.036 32.3368C104.131 32.2421 104.163 32.1158 104.163 31.9579V31.0421C104.163 30.8842 104.131 30.7579 104.036 30.6632C103.941 30.5684 103.814 30.5053 103.655 30.5053C103.497 30.5053 103.37 30.5684 103.306 30.6632C103.243 30.7579 103.179 30.8842 103.179 31.0421V31.9579C103.179 32.1158 103.211 32.2421 103.306 32.3368C103.402 32.4316 103.528 32.4947 103.655 32.4947C103.782 32.4947 103.941 32.4316 104.036 32.3368Z" fill="#0F1E3D"/>
<path d="M105.877 32.9051V32.8735V30.0946V30.063H105.909H106.384H106.416V30.0946V32.3998C106.416 32.3998 106.416 32.4314 106.448 32.4314H107.781C107.781 32.4314 107.812 32.4314 107.812 32.463C107.812 32.4946 107.812 32.4946 107.812 32.4946V32.9051V32.9367L107.781 32.9682H105.877C105.909 32.9367 105.877 32.9367 105.877 32.9051Z" fill="#0F1E3D"/>
<path d="M112.349 30.5368H112.317H110.984C110.984 30.5368 110.953 30.5368 110.953 30.5684V31.2C110.953 31.2 110.953 31.2316 110.984 31.2316H111.873H111.904V31.2631V31.6737V31.7052L111.873 31.7368H110.984C110.984 31.7368 110.953 31.7368 110.953 31.7684V32.9052V32.9368L110.921 32.9684H110.445C110.445 32.9684 110.413 32.9684 110.413 32.9368V32.9052V30.1263V30.0947H110.445H112.349H112.38V30.1263V30.5368C112.38 30.5053 112.38 30.5368 112.349 30.5368Z" fill="#0F1E3D"/>
<path d="M113.808 32.8421C113.649 32.7474 113.522 32.621 113.427 32.4631C113.332 32.3053 113.3 32.1158 113.3 31.9263V31.0421C113.3 30.8526 113.332 30.6632 113.427 30.5053C113.522 30.3474 113.649 30.2211 113.808 30.1263C113.967 30.0316 114.157 30 114.379 30C114.601 30 114.792 30.0316 114.95 30.1263C115.109 30.2211 115.236 30.3474 115.331 30.5053C115.426 30.6632 115.458 30.8526 115.458 31.0421V31.9263C115.458 32.1474 115.426 32.3053 115.331 32.4631C115.236 32.621 115.109 32.7474 114.95 32.8421C114.792 32.9368 114.601 32.9684 114.379 32.9684C114.157 32.9684 113.967 32.9368 113.808 32.8421ZM114.728 32.3368C114.823 32.2421 114.855 32.1158 114.855 31.9579V31.0421C114.855 30.8842 114.823 30.7579 114.728 30.6632C114.633 30.5684 114.506 30.5053 114.347 30.5053C114.189 30.5053 114.062 30.5684 113.998 30.6632C113.935 30.7579 113.871 30.8842 113.871 31.0421V31.9579C113.871 32.1158 113.903 32.2421 113.998 32.3368C114.093 32.4316 114.22 32.4947 114.347 32.4947C114.474 32.4947 114.633 32.4316 114.728 32.3368Z" fill="#0F1E3D"/>
<path d="M118.092 32.9052L117.584 31.7684C117.584 31.7684 117.584 31.7368 117.552 31.7368H117.171C117.171 31.7368 117.14 31.7368 117.14 31.7684V32.9052V32.9368L117.108 32.9684H116.632C116.632 32.9684 116.6 32.9684 116.6 32.9368V32.9052V30.1263V30.0947H116.632H117.806C117.965 30.0947 118.123 30.1263 118.282 30.1895C118.409 30.2526 118.536 30.3789 118.599 30.5053C118.663 30.6316 118.694 30.7895 118.694 30.9474C118.694 31.1368 118.663 31.2947 118.567 31.421C118.472 31.5474 118.345 31.6421 118.187 31.7052C118.187 31.7052 118.155 31.7368 118.187 31.7368L118.758 32.9052V32.9368C118.758 32.9684 118.758 32.9684 118.726 32.9684H118.218C118.123 32.9368 118.092 32.9052 118.092 32.9052ZM117.14 30.5684V31.2631C117.14 31.2631 117.14 31.2947 117.171 31.2947H117.711C117.838 31.2947 117.933 31.2631 117.996 31.2C118.06 31.1368 118.092 31.0421 118.092 30.9474C118.092 30.8526 118.06 30.7579 117.996 30.6947C117.933 30.6316 117.838 30.6 117.711 30.6L117.14 30.5684C117.171 30.5684 117.14 30.5684 117.14 30.5684Z" fill="#0F1E3D"/>
</svg>
